<svg xmlns="http://www.w3.org/2000/svg" viewBox="0 0 640 400" width="640" height="400" role="img" aria-label="Placeholder screenshot of a generic settings list, after state">
  <rect width="640" height="400" fill="#141418"/>
  <rect width="640" height="34" fill="#1c1c22"/>
  <circle cx="17" cy="17" r="4" fill="#2e2e36"/>
  <circle cx="31" cy="17" r="4" fill="#2e2e36"/>
  <circle cx="45" cy="17" r="4" fill="#2e2e36"/>
  <rect x="24" y="58" width="200" height="12" rx="3" fill="#3a3a44"/>
  <rect x="24" y="88" width="270" height="26" rx="13" fill="#1c1c24"/>
  <rect x="30" y="94" width="82" height="14" rx="9" fill="#c27eff" opacity=".8"/>
  <rect x="124" y="98" width="52" height="6" rx="2" fill="#2e2e36"/>
  <rect x="192" y="98" width="52" height="6" rx="2" fill="#2e2e36"/>
  <rect x="24" y="130" width="592" height="60" rx="4" fill="#1c1c24"/>
  <rect x="40" y="148" width="150" height="8" rx="2" fill="#2e2e36"/>
  <rect x="40" y="166" width="230" height="6" rx="2" fill="#262630"/>
  <rect x="516" y="150" width="84" height="22" rx="4" fill="#c27eff" opacity=".75"/>
  <rect x="24" y="206" width="592" height="60" rx="4" fill="#1c1c24"/>
  <rect x="40" y="224" width="176" height="8" rx="2" fill="#2e2e36"/>
  <rect x="40" y="242" width="204" height="6" rx="2" fill="#262630"/>
  <rect x="516" y="226" width="84" height="22" rx="4" fill="#262630"/>
  <rect x="24" y="282" width="592" height="60" rx="4" fill="#1c1c24"/>
  <rect x="40" y="300" width="132" height="8" rx="2" fill="#2e2e36"/>
  <rect x="40" y="318" width="248" height="6" rx="2" fill="#262630"/>
  <rect x="516" y="302" width="84" height="22" rx="4" fill="#262630"/>
</svg>
